<?xml version="1.0" encoding="UTF-8" standalone="no"?>
<!-- Generator: Adobe Illustrator 16.0.0, SVG Export Plug-In . SVG Version: 6.00 Build 0)  -->

<svg
   xmlns:i="http://ns.adobe.com/AdobeIllustrator/10.0/"
   xmlns:dc="http://purl.org/dc/elements/1.1/"
   xmlns:cc="http://creativecommons.org/ns#"
   xmlns:rdf="http://www.w3.org/1999/02/22-rdf-syntax-ns#"
   xmlns:svg="http://www.w3.org/2000/svg"
   xmlns="http://www.w3.org/2000/svg"
   xmlns:xlink="http://www.w3.org/1999/xlink"
   xmlns:sodipodi="http://sodipodi.sourceforge.net/DTD/sodipodi-0.dtd"
   xmlns:inkscape="http://www.inkscape.org/namespaces/inkscape"
   version="1.1"
   x="0px"
   y="0px"
   width="625px"
   height="625px"
   viewBox="0 0 625 625"
   enable-background="new 0 0 625 625"
   xml:space="preserve"
   id="svg2"
   inkscape:version="0.48.4 r9939"
   sodipodi:docname="hyperkitty-logo.svg"
   inkscape:export-filename="/home/nicolasd/code/hyperkitty.png"
   inkscape:export-xdpi="28.799999"
   inkscape:export-ydpi="28.799999"><metadata
     id="metadata431"><rdf:RDF><cc:Work
         rdf:about=""><dc:format>image/svg+xml</dc:format><dc:type
           rdf:resource="http://purl.org/dc/dcmitype/StillImage" /><dc:title></dc:title></cc:Work></rdf:RDF></metadata><defs
     id="defs429" /><sodipodi:namedview
     pagecolor="#ffffff"
     bordercolor="#666666"
     borderopacity="1"
     objecttolerance="10"
     gridtolerance="10"
     guidetolerance="10"
     inkscape:pageopacity="0"
     inkscape:pageshadow="2"
     inkscape:window-width="1366"
     inkscape:window-height="709"
     id="namedview427"
     showgrid="false"
     inkscape:zoom="1"
     inkscape:cx="312.5"
     inkscape:cy="182.07812"
     inkscape:window-x="0"
     inkscape:window-y="27"
     inkscape:window-maximized="1"
     inkscape:current-layer="svg2" /><path
     style="fill:#ffffff"
     d="m 113.472,282.654 c -1.255,11.733 11.474,146.164 11.474,146.164 0,0 25.009,132.037 28.449,140.357 23.452,-1.057 136.293,-2.305 146.471,-2.039 10.178,0.266 127.676,7.987 143.333,10.287 3.105,-6.049 40.182,-119.361 40.182,-119.361 0,0 25.525,-120.153 26.512,-141.696 -33.918,-5.246 -194.539,-27.34 -194.539,-27.34 l -201.882,-6.372 z"
     sodipodi:nodetypes="ccczccccc"
     inkscape:connector-curvature="0"
     id="path3225" /><g
     transform="matrix(0.79163735,0,0,0.79163735,63.608425,17.321595)"
     id="g144"><g
       id="g161"><g
         id="g163"><g
           id="g165"><g
             id="g167"><g
               id="g160"><defs
                 id="defs162"><path
                   inkscape:connector-curvature="0"
                   d="m 113.141,697.331 c 0,0 251.217,7.258 371.564,11.072 l 0,0 c 0,0 -82.366,-24.008 -209.646,-24.012 l 0,0 c -48.21,-10e-4 -102.841,3.442 -161.918,12.94"
                   id="SVGID_13_" /></defs><clipPath
                 id="SVGID_14_"><use
                   height="625"
                   width="625"
                   y="0"
                   x="0"
                   style="overflow:visible"
                   id="use166"
                   overflow="visible"
                   xlink:href="#SVGID_13_" /></clipPath><g
                 clip-path="url(#SVGID_14_)"
                 id="g146"><g
                   id="g152"><g
                     id="g154"><linearGradient
                       gradientTransform="matrix(-276.2908,-74.7633,-92.3528,341.3748,143891.67,-228798.98)"
                       y2="732.48602"
                       x2="275.24561"
                       y1="732.48602"
                       x1="274.24561"
                       gradientUnits="userSpaceOnUse"
                       id="path164_1_"><stop
                         id="stop172"
                         style="stop-color:#47488B"
                         offset="0" /><stop
                         id="stop174"
                         style="stop-color:#6191C4"
                         offset="0.4888" /><stop
                         id="stop176"
                         style="stop-color:#3E3A5F"
                         offset="1" /></linearGradient><path
                       style="fill:url(#path164_1_)"
                       d="m 113.141,697.331 c 0,0 251.217,7.258 371.564,11.072 l 0,0 c 0,0 -82.366,-24.008 -209.646,-24.012 l 0,0 c -48.21,-10e-4 -102.841,3.442 -161.918,12.94"
                       inkscape:connector-curvature="0"
                       id="path164" /></g></g></g></g></g></g></g></g></g><g
     transform="matrix(0.79163735,0,0,0.79163735,63.608425,17.321595)"
     id="g78"><g
       id="g83"><g
         id="g85"><g
           id="g87"><g
             id="g89"><g
               id="g86"><defs
                 id="defs88"><path
                   inkscape:connector-curvature="0"
                   d="M 478.766,704.208 C 415.287,609.126 343.311,548.082 343.311,548.082 l 0,0 c 43.969,50.542 135.455,156.126 135.455,156.126"
                   id="SVGID_7_" /></defs><clipPath
                 id="SVGID_8_"><use
                   height="625"
                   width="625"
                   y="0"
                   x="0"
                   style="overflow:visible"
                   id="use92"
                   overflow="visible"
                   xlink:href="#SVGID_7_" /></clipPath><g
                 clip-path="url(#SVGID_8_)"
                 id="g80"><g
                   id="g95"><g
                     id="g88"><linearGradient
                       gradientTransform="matrix(116.5234,114.0699,-76.56,78.2043,24341.113,-88474.016)"
                       y2="734.73242"
                       x2="277.74911"
                       y1="734.73242"
                       x1="276.7486"
                       gradientUnits="userSpaceOnUse"
                       id="path98_1_"><stop
                         id="stop99"
                         style="stop-color:#47488B"
                         offset="0" /><stop
                         id="stop101"
                         style="stop-color:#6191C4"
                         offset="0.4888" /><stop
                         id="stop103"
                         style="stop-color:#3E3A5F"
                         offset="1" /></linearGradient><path
                       style="fill:url(#path98_1_)"
                       d="M 478.766,704.208 C 415.287,609.126 343.311,548.082 343.311,548.082 l 0,0 c 43.969,50.542 135.455,156.126 135.455,156.126"
                       inkscape:connector-curvature="0"
                       id="path98" /></g></g></g></g></g></g></g></g></g><g
     transform="matrix(0.79163735,0,0,0.79163735,63.608425,17.321595)"
     id="g56"><g
       id="g57"><g
         id="g59"><g
           id="g61"><g
             id="g63"><g
               id="g62"><defs
                 id="defs64"><path
                   inkscape:connector-curvature="0"
                   d="M 115.101,694.131 C 162.928,646.577 262.894,547.584 262.894,547.584 l 0,0 C 169.886,619.729 115.101,694.131 115.101,694.131"
                   id="SVGID_5_" /></defs><clipPath
                 id="SVGID_6_"><use
                   height="625"
                   width="625"
                   y="0"
                   x="0"
                   style="overflow:visible"
                   id="use68"
                   overflow="visible"
                   xlink:href="#SVGID_5_" /></clipPath><g
                 clip-path="url(#SVGID_6_)"
                 id="g58"><g
                   id="g64"><g
                     id="g66"><linearGradient
                       gradientTransform="matrix(93.7223,-132.4789,88.9166,62.8886,-90568.68,-9424.1201)"
                       y2="733.57281"
                       x2="272.77661"
                       y1="733.57281"
                       x1="271.77661"
                       gradientUnits="userSpaceOnUse"
                       id="path76_1_"><stop
                         id="stop74"
                         style="stop-color:#47488B"
                         offset="0" /><stop
                         id="stop76"
                         style="stop-color:#6191C4"
                         offset="0.4888" /><stop
                         id="stop78"
                         style="stop-color:#3E3A5F"
                         offset="1" /></linearGradient><path
                       style="fill:url(#path76_1_)"
                       d="M 115.101,694.131 C 162.928,646.577 262.894,547.584 262.894,547.584 l 0,0 C 169.886,619.729 115.101,694.131 115.101,694.131"
                       inkscape:connector-curvature="0"
                       id="path76" /></g></g></g></g></g></g></g></g></g><g
     transform="matrix(2.6446181,0,0,2.6446181,160.68597,368.0476)"
     style="overflow:visible"
     id="g3056"><path
       i:knockout="Off"
       d="m 60.969,47.645 c -1.494,0.02 0.281,0.768 2.232,1.069 0.541,-0.422 1.027,-0.846 1.463,-1.26 -1.213,0.297 -2.449,0.304 -3.695,0.191"
       id="path9"
       inkscape:connector-curvature="0"
       style="fill:#d70751" /><path
       i:knockout="Off"
       d="m 68.986,45.646 c 0.893,-1.229 1.541,-2.573 1.77,-3.963 -0.201,0.99 -0.736,1.845 -1.244,2.749 -2.793,1.759 -0.264,-1.044 -0.002,-2.111 -3.002,3.783 -0.414,2.268 -0.524,3.325"
       id="path11"
       inkscape:connector-curvature="0"
       style="fill:#d70751" /><path
       i:knockout="Off"
       d="m 71.949,37.942 c 0.182,-2.691 -0.529,-1.839 -0.768,-0.814 0.278,0.146 0.499,1.898 0.768,0.814"
       id="path13"
       inkscape:connector-curvature="0"
       style="fill:#d70751" /><path
       i:knockout="Off"
       d="m 55.301,1.163 c 0.798,0.142 1.724,0.252 1.591,0.443 0.876,-0.193 1.073,-0.367 -1.591,-0.443"
       id="path15"
       inkscape:connector-curvature="0"
       style="fill:#d70751" /><path
       i:knockout="Off"
       d="M 56.893,1.606 56.332,1.723 56.855,1.675 56.893,1.606"
       id="path17"
       inkscape:connector-curvature="0"
       style="fill:#d70751" /><path
       i:knockout="Off"
       d="m 81.762,38.962 c 0.09,2.416 -0.705,3.59 -1.424,5.666 l -1.293,0.643 c -1.057,2.054 0.105,1.304 -0.652,2.937 -1.652,1.467 -5.006,4.589 -6.08,4.875 -0.785,-0.017 0.531,-0.926 0.703,-1.281 -2.209,1.516 -1.773,2.276 -5.152,3.199 L 67.766,54.78 c -8.33,3.92 -19.902,-3.847 -19.75,-14.443 -0.088,0.672 -0.253,0.504 -0.437,0.774 -0.43,-5.451 2.518,-10.926 7.49,-13.165 4.863,-2.406 10.564,-1.42 14.045,1.829 -1.912,-2.506 -5.721,-5.163 -10.232,-4.917 -4.421,0.072 -8.558,2.881 -9.938,5.932 -2.264,1.425 -2.528,5.496 -3.514,6.242 -1.329,9.76 2.497,13.975 8.97,18.936 1.016,0.686 0.286,0.791 0.422,1.313 -2.15,-1.006 -4.118,-2.526 -5.738,-4.387 0.86,1.257 1.787,2.479 2.986,3.439 -2.029,-0.685 -4.738,-4.913 -5.527,-5.085 3.495,6.258 14.178,10.975 19.775,8.634 -2.59,0.096 -5.879,0.053 -8.787,-1.022 -1.225,-0.629 -2.884,-1.93 -2.587,-2.173 7.636,2.851 15.522,2.158 22.128,-3.137 1.682,-1.31 3.518,-3.537 4.049,-3.567 -0.799,1.202 0.137,0.578 -0.477,1.639 1.672,-2.701 -0.729,-1.1 1.73,-4.664 l 0.908,1.25 c -0.34,-2.244 2.785,-4.966 2.467,-8.512 0.717,-1.084 0.799,1.168 0.039,3.662 1.055,-2.767 0.279,-3.212 0.549,-5.496 0.291,0.768 0.678,1.583 0.875,2.394 -0.688,-2.675 0.703,-4.503 1.049,-6.058 -0.342,-0.15 -1.061,1.182 -1.227,-1.976 0.025,-1.372 0.383,-0.719 0.52,-1.057 -0.268,-0.155 -0.975,-1.207 -1.404,-3.224 0.309,-0.475 0.832,1.229 1.256,1.298 -0.273,-1.603 -0.742,-2.826 -0.762,-4.057 -1.24,-2.59 -0.439,0.346 -1.443,-1.112 -1.32,-4.114 1.094,-0.955 1.258,-2.823 1.998,2.895 3.137,7.385 3.662,9.244 -0.4,-2.267 -1.045,-4.464 -1.834,-6.589 0.609,0.257 -0.979,-4.663 0.791,-1.405 C 87.189,15.552 81,9.062 75.305,6.018 76,6.655 76.879,7.455 76.565,7.581 73.731,5.896 74.229,5.763 73.823,5.051 71.518,4.112 71.364,5.128 69.839,5.053 65.489,2.745 64.651,2.99 60.648,1.546 L 60.83,2.398 C 57.949,1.438 57.473,2.76 54.36,2.4 54.171,2.253 55.358,1.864 56.336,1.723 53.55,2.091 53.68,1.173 50.954,1.824 51.625,1.353 52.337,1.04 53.053,0.64 50.782,0.778 47.629,1.962 48.602,0.884 44.897,2.538 38.316,4.859 34.623,8.322 L 34.507,7.546 c -1.692,2.031 -7.379,6.066 -7.832,8.699 l -0.453,0.105 c -0.879,1.491 -1.45,3.18 -2.148,4.713 -1.151,1.963 -1.688,0.756 -1.524,1.064 -2.265,4.592 -3.392,8.45 -4.363,11.616 0.692,1.035 0.017,6.232 0.278,10.391 -1.136,20.544 14.418,40.489 31.42,45.093 2.492,0.893 6.197,0.861 9.349,0.949 -3.718,-1.064 -4.198,-0.563 -7.822,-1.826 -2.613,-1.232 -3.185,-2.637 -5.037,-4.244 l 0.733,1.295 c -3.63,-1.285 -2.111,-1.59 -5.065,-2.525 l 0.783,-1.021 c -1.177,-0.09 -3.117,-1.982 -3.647,-3.033 l -1.288,0.051 c -1.546,-1.906 -2.371,-3.283 -2.31,-4.35 l -0.416,0.742 c -0.471,-0.809 -5.691,-7.158 -2.983,-5.68 -0.503,-0.458 -1.172,-0.747 -1.897,-2.066 l 0.551,-0.629 c -1.301,-1.677 -2.398,-3.826 -2.314,-4.542 0.695,0.938 1.177,1.114 1.655,1.275 -3.291,-8.164 -3.476,-0.449 -5.967,-8.31 l 0.526,-0.042 c -0.403,-0.611 -0.65,-1.27 -0.974,-1.919 l 0.23,-2.285 c -2.368,-2.736 -0.662,-11.645 -0.319,-16.53 0.235,-1.986 1.977,-4.101 3.3,-7.418 l -0.806,-0.138 c 1.542,-2.688 8.802,-10.799 12.166,-10.383 1.629,-2.046 -0.324,-0.008 -0.643,-0.522 3.579,-3.703 4.704,-2.616 7.119,-3.283 2.603,-1.545 -2.235,0.604 -1.001,-0.589 4.503,-1.149 3.19,-2.614 9.063,-3.197 0.62,0.352 -1.437,0.544 -1.953,1.001 3.75,-1.836 11.869,-1.417 17.145,1.018 6.117,2.861 12.994,11.314 13.266,19.267 l 0.309,0.083 c -0.156,3.162 0.484,6.819 -0.627,10.177 l 0.751,-1.591"
       id="path19"
       inkscape:connector-curvature="0"
       style="fill:#d70751" /><path
       i:knockout="Off"
       d="m 44.658,49.695 -0.211,1.047 c 0.983,1.335 1.763,2.781 3.016,3.821 -0.902,-1.759 -1.571,-2.486 -2.805,-4.868"
       id="path21"
       inkscape:connector-curvature="0"
       style="fill:#d70751" /><path
       i:knockout="Off"
       d="m 46.979,49.605 c -0.52,-0.576 -0.826,-1.268 -1.172,-1.956 0.33,1.211 1.006,2.252 1.633,3.312 l -0.461,-1.356"
       id="path23"
       inkscape:connector-curvature="0"
       style="fill:#d70751" /><path
       i:knockout="Off"
       d="m 88.063,40.675 -0.219,0.552 c -0.402,2.858 -1.273,5.686 -2.605,8.309 1.472,-2.767 2.421,-5.794 2.824,-8.861"
       id="path25"
       inkscape:connector-curvature="0"
       style="fill:#d70751" /><path
       i:knockout="Off"
       d="M 55.598,0.446 C 56.607,0.077 58.08,0.243 59.154,0 57.756,0.117 56.365,0.187 54.992,0.362 l 0.606,0.084"
       id="path27"
       inkscape:connector-curvature="0"
       style="fill:#d70751" /><path
       i:knockout="Off"
       d="m 20.127,19.308 c 0.233,2.154 -1.62,2.991 0.41,1.569 1.09,-2.454 -0.424,-0.677 -0.41,-1.569"
       id="path29"
       inkscape:connector-curvature="0"
       style="fill:#d70751" /><path
       i:knockout="Off"
       d="m 17.739,29.282 c 0.469,-1.437 0.553,-2.299 0.732,-3.132 -1.293,1.654 -0.596,2.007 -0.732,3.132"
       id="path31"
       inkscape:connector-curvature="0"
       style="fill:#d70751" /></g><g
     transform="matrix(0.79163735,0,0,0.79163735,63.608425,17.321595)"
     id="g12"><g
       id="g4"><g
         id="g6"><g
           id="g8"><g
             id="g10"><g
               id="g11"><defs
                 id="defs13"><path
                   inkscape:connector-curvature="0"
                   d="m 61.693,389.685 c -0.026,178.418 50.816,304.02 50.816,304.02 l 0,0 C 96.216,579.755 62.924,341.938 62.924,341.938 l 0,0 c -0.84,16.285 -1.229,32.216 -1.231,47.747"
                   id="SVGID_1_" /></defs><clipPath
                 id="SVGID_2_"><use
                   height="625"
                   width="625"
                   y="0"
                   x="0"
                   style="overflow:visible"
                   id="use17"
                   overflow="visible"
                   xlink:href="#SVGID_1_" /></clipPath><g
                 clip-path="url(#SVGID_2_)"
                 id="g14"><g
                   id="g20"><g
                     id="g22"><linearGradient
                       gradientTransform="matrix(-86.0828,-263.1489,263.1489,-86.0828,-168540.95,135335.72)"
                       y2="730.25928"
                       x2="273.80539"
                       y1="730.25928"
                       x1="272.80539"
                       gradientUnits="userSpaceOnUse"
                       id="path32_1_"><stop
                         id="stop23"
                         style="stop-color:#47488B"
                         offset="0" /><stop
                         id="stop25"
                         style="stop-color:#6191C4"
                         offset="0.4888" /><stop
                         id="stop27"
                         style="stop-color:#3E3A5F"
                         offset="1" /></linearGradient><path
                       style="fill:url(#path32_1_)"
                       d="m 61.693,389.685 c -0.026,178.418 50.816,304.02 50.816,304.02 l 0,0 C 96.216,579.755 62.924,341.938 62.924,341.938 l 0,0 c -0.84,16.285 -1.229,32.216 -1.231,47.747"
                       inkscape:connector-curvature="0"
                       id="path32" /></g></g></g></g></g></g></g></g></g><g
     transform="matrix(0.79163735,0,0,0.79163735,63.608425,17.321595)"
     id="g100"><g
       id="g109"><g
         id="g111"><g
           id="g113"><g
             id="g115"><g
               id="g112"><defs
                 id="defs114"><path
                   inkscape:connector-curvature="0"
                   d="m 306.563,564.306 c 0,0 173.453,-122.965 256.762,-181.692 l 0,0 c 0,0 -131.132,55.611 -256.762,181.692"
                   id="SVGID_9_" /></defs><clipPath
                 id="SVGID_10_"><use
                   height="625"
                   width="625"
                   y="0"
                   x="0"
                   style="overflow:visible"
                   id="use118"
                   overflow="visible"
                   xlink:href="#SVGID_9_" /></clipPath><g
                 clip-path="url(#SVGID_10_)"
                 id="g102"><g
                   id="g108"><g
                     id="g110"><linearGradient
                       gradientTransform="matrix(-219.0311,111.9852,109.2051,220.0567,-19069.908,-191745.73)"
                       y2="732.86719"
                       x2="276.71289"
                       y1="732.86719"
                       x1="275.7124"
                       gradientUnits="userSpaceOnUse"
                       id="path120_1_"><stop
                         id="stop124"
                         style="stop-color:#47488B"
                         offset="0" /><stop
                         id="stop126"
                         style="stop-color:#6191C4"
                         offset="0.4888" /><stop
                         id="stop128"
                         style="stop-color:#3E3A5F"
                         offset="1" /></linearGradient><path
                       style="fill:url(#path120_1_)"
                       d="m 306.563,564.306 c 0,0 173.453,-122.965 256.762,-181.692 l 0,0 c 0,0 -131.132,55.611 -256.762,181.692"
                       inkscape:connector-curvature="0"
                       id="path120" /></g></g></g></g></g></g></g></g></g><g
     transform="matrix(0.79163735,0,0,0.79163735,63.608425,17.321595)"
     id="g122"><g
       id="g135"><g
         id="g137"><g
           id="g139"><g
             id="g141"><g
               id="g136"><defs
                 id="defs138"><path
                   inkscape:connector-curvature="0"
                   d="m 480.717,703.617 c 0,0 79.273,-120.901 81.437,-311.534 l 0,0 c 0.003,0 -54.781,210.678 -81.437,311.534"
                   id="SVGID_11_" /></defs><clipPath
                 id="SVGID_12_"><use
                   height="625"
                   width="625"
                   y="0"
                   x="0"
                   style="overflow:visible"
                   id="use142"
                   overflow="visible"
                   xlink:href="#SVGID_11_" /></clipPath><g
                 clip-path="url(#SVGID_12_)"
                 id="g124"><g
                   id="g130"><g
                     id="g132"><linearGradient
                       gradientTransform="matrix(116.2792,-219.093,-298.406,-158.3748,186685.3,176085.17)"
                       y2="730.34082"
                       x2="273.629"
                       y1="730.34082"
                       x1="272.629"
                       gradientUnits="userSpaceOnUse"
                       id="path142_1_"><stop
                         id="stop148"
                         style="stop-color:#47488B"
                         offset="0" /><stop
                         id="stop150"
                         style="stop-color:#6191C4"
                         offset="0.4888" /><stop
                         id="stop152"
                         style="stop-color:#3E3A5F"
                         offset="1" /></linearGradient><path
                       style="fill:url(#path142_1_)"
                       d="m 480.717,703.617 c 0,0 79.273,-120.901 81.437,-311.534 l 0,0 c 0.003,0 -54.781,210.678 -81.437,311.534"
                       inkscape:connector-curvature="0"
                       id="path142" /></g></g></g></g></g></g></g></g></g><g
     transform="matrix(0.79163735,0,0,0.79163735,63.608425,17.321595)"
     id="g166"><g
       id="g187"><g
         id="g189"><g
           id="g191"><g
             id="g193"><g
               id="g184"><defs
                 id="defs186"><path
                   inkscape:connector-curvature="0"
                   d="M 53.565,335.175 C 221.8,349.154 572.711,379.09 572.711,379.09 l 0,0 C 404.331,339.296 255.086,331.055 160.328,331.055 l 0,0 c -67,-0.001 -106.763,4.12 -106.763,4.12"
                   id="SVGID_15_" /></defs><clipPath
                 id="SVGID_16_"><use
                   height="625"
                   width="625"
                   y="0"
                   x="0"
                   style="overflow:visible"
                   id="use190"
                   overflow="visible"
                   xlink:href="#SVGID_15_" /></clipPath><g
                 clip-path="url(#SVGID_16_)"
                 id="g168"><g
                   id="g174"><g
                     id="g176"><linearGradient
                       gradientTransform="matrix(405.6025,-32.3449,29.4814,369.7366,-132840.36,-261551.48)"
                       y2="732.42798"
                       x2="275.41711"
                       y1="732.42798"
                       x1="274.41711"
                       gradientUnits="userSpaceOnUse"
                       id="path186_1_"><stop
                         id="stop196"
                         style="stop-color:#47488B"
                         offset="0" /><stop
                         id="stop198"
                         style="stop-color:#6191C4"
                         offset="0.4888" /><stop
                         id="stop200"
                         style="stop-color:#3E3A5F"
                         offset="1" /></linearGradient><path
                       style="fill:url(#path186_1_)"
                       d="M 53.565,335.175 C 221.8,349.154 572.711,379.09 572.711,379.09 l 0,0 C 404.331,339.296 255.086,331.055 160.328,331.055 l 0,0 c -67,-0.001 -106.763,4.12 -106.763,4.12"
                       inkscape:connector-curvature="0"
                       id="path186" /></g></g></g></g></g></g></g></g></g><g
     id="g203"
     sodipodi:docname="hyperkitty-logo.svg"
     inkscape:version="0.48.3.1 r9886"
     inkscape:export-filename="/home/gauret/fedora/hk/hyperkitty/hyperkitty/static/img/logo.png"
     inkscape:export-xdpi="32.756775"
     inkscape:export-ydpi="32.756775"><sodipodi:namedview
       inkscape:window-x="-2"
       inkscape:pageopacity="0"
       inkscape:window-width="1920"
       inkscape:current-layer="svg2"
       inkscape:window-maximized="1"
       inkscape:window-y="-3"
       inkscape:window-height="1028"
       inkscape:pageshadow="2"
       inkscape:cy="275.34502"
       bordercolor="#666666"
       pagecolor="#ffffff"
       guidetolerance="10"
       showgrid="false"
       inkscape:cx="182.19848"
       inkscape:zoom="1.0680141"
       objecttolerance="10"
       borderopacity="1"
       gridtolerance="10"
       id="namedview397" /><g
       id="g354" /></g><g
     id="Calque_3" /><g
     id="Calque_4" /><g
     transform="matrix(0.79163735,0,0,0.79163735,63.608425,17.321595)"
     id="g34"><g
       id="g30"><g
         id="g32"><g
           id="g35"><g
             id="g37"><g
               id="g36"><defs
                 id="defs38"><path
                   inkscape:connector-curvature="0"
                   d="M 306.563,564.306 C 196.984,415.903 68.42,343.07 68.42,343.07 l 0,0 c 77.305,71.551 238.143,221.236 238.143,221.236"
                   id="SVGID_3_" /></defs><clipPath
                 id="SVGID_4_"><use
                   height="625"
                   width="625"
                   y="0"
                   x="0"
                   style="overflow:visible"
                   id="use42"
                   overflow="visible"
                   xlink:href="#SVGID_3_" /></clipPath><g
                 clip-path="url(#SVGID_4_)"
                 id="g44"><g
                   id="g42"><g
                     id="g47"><linearGradient
                       gradientTransform="matrix(210.5426,142.6992,-151.3516,223.2964,52910.961,-202587.88)"
                       y2="732.71417"
                       x2="276.67419"
                       y1="732.71417"
                       x1="275.67419"
                       gradientUnits="userSpaceOnUse"
                       id="path54_1_"><stop
                         id="stop50"
                         style="stop-color:#47488B"
                         offset="0" /><stop
                         id="stop52"
                         style="stop-color:#6191C4"
                         offset="0.4888" /><stop
                         id="stop54"
                         style="stop-color:#3E3A5F"
                         offset="1" /></linearGradient><path
                       style="fill:url(#path54_1_)"
                       d="M 306.563,564.306 C 196.984,415.903 68.42,343.07 68.42,343.07 l 0,0 c 77.305,71.551 238.143,221.236 238.143,221.236"
                       inkscape:connector-curvature="0"
                       id="path54" /></g></g></g></g></g></g></g></g></g><g
     id="Calque_5"><path
       fill="#FFFFFF"
       stroke="#000000"
       stroke-width="3"
       stroke-linecap="round"
       stroke-miterlimit="10"
       d="M384.733,197.914   c0,0,183.721-35.852,53.491,51.599C387.079,215.413,384.733,197.914,384.733,197.914z"
       id="path210" /><g
       id="g212"><path
         fill="#FFFFFF"
         stroke="#000000"
         stroke-width="3"
         stroke-linecap="round"
         stroke-miterlimit="10"
         d="M384.06,294.678    c0,0,24.608-22.085,52.606-7.317c34.288,18.542,40.776,99.978,16.171,110.038c-15.424,7.359-36.463-2.206-43.977-15.655    c-14.627-20.762,0.089-56.451-6.121-59.6c-6.211-3.146-25.923,0.285-33.624-7.247C361.413,307.365,384.06,294.678,384.06,294.678z    "
         id="path214" /><g
         id="g216"><path
           d="M421.616,394.622l1.5-15.759l1.5,15.759c0.079,0.828-0.529,1.563-1.357,1.643s-1.563-0.528-1.643-1.357     C421.607,394.813,421.608,394.713,421.616,394.622z"
           id="path218" /></g><g
         id="g220"><path
           d="M439.476,398.382l-1.264-15.193l4.215,14.652c0.229,0.8-0.232,1.635-1.032,1.865c-0.8,0.229-1.635-0.232-1.865-1.032     C439.502,398.579,439.484,398.477,439.476,398.382z"
           id="path222" /></g><g
         id="g224"><path
           d="M456.003,393.394l-5.707-14.53l8.381,13.171c0.447,0.702,0.24,1.634-0.462,2.08c-0.702,0.447-1.634,0.24-2.081-0.462     C456.083,393.571,456.037,393.479,456.003,393.394z"
           id="path226" /></g><linearGradient
         id="SVGID_17_"
         gradientUnits="userSpaceOnUse"
         x1="403.164"
         y1="295.9253"
         x2="457.987"
         y2="390.5098"><stop
           offset="0"
           style="stop-color:#6171C4"
           id="stop229" /><stop
           offset="0.4709"
           style="stop-color:#4E5388"
           id="stop231" /><stop
           offset="0.8172"
           style="stop-color:#424163"
           id="stop233" /><stop
           offset="1"
           style="stop-color:#3E3A55"
           id="stop235" /></linearGradient><path
         fill="url(#SVGID_17_)"
         d="M470.426,351.421c-0.461-4.935-1.225-9.822-2.271-14.643c-1.032-4.825-2.394-9.574-4.053-14.215    c-1.68-4.634-3.634-9.173-6.006-13.5c-0.029-0.054-0.061-0.104-0.091-0.157c-5.189-10.227-12.065-18.585-20.496-23.144    c-6.663-3.514-13.699-5.296-20.918-5.296c-9.413,0-17.566,2.973-23.505,6.063c0.165,0.439,0.332,0.877,0.499,1.319    c0.214,0.729,0.4,1.48,0.593,2.226c5.595-2.993,13.441-5.993,22.413-5.993c6.624,0,13.095,1.641,19.214,4.869    c8.312,4.495,15.02,13.005,19.972,23.412c3.521,8.092,5.774,16.707,7.186,25.398c0.747,4.663,1.218,9.366,1.398,14.065    c0.219,4.696,0.167,9.396-0.256,14.03c-0.424,4.63-1.192,9.208-2.449,13.538c-1.286,4.287-3.102,8.428-5.751,11.396    c-1.312,1.49-2.846,2.587-4.455,3.278l-1.678,0.678l-0.839,0.342l-0.414,0.161l-0.349,0.085l-1.39,0.355l-0.695,0.188l-0.782,0.11    c-4.148,0.683-8.559,0.388-12.803-0.75c-4.259-1.096-8.375-2.996-12.011-5.54c-3.639-2.537-6.815-5.724-9.092-9.371l-0.155-0.248    l-0.007-0.01c-2.816-3.754-4.657-8.312-5.69-13.134c-1.068-4.824-1.414-9.893-1.379-14.989c0.009-1.593,0.064-3.192,0.14-4.796    c0.268-3.337,0.634-6.553,0.978-9.514c1.106-9.56,1.775-15.328-1.729-17.105c-2.737-1.387-7.253-1.627-12.483-1.904    c-2.955-0.158-6.202-0.334-9.305-0.757c-0.556,0.528-1.11,1.058-1.68,1.569c-0.575,0.526-1.165,1.035-1.753,1.545    c4.022,0.796,8.42,1.032,12.546,1.252c4.619,0.244,8.983,0.477,11.041,1.519c1.256,0.638,0.327,8.668-0.229,13.466    c-0.361,3.117-0.747,6.506-1.022,10.025c-0.166,1.509-0.313,3.022-0.424,4.545c-0.382,5.273-0.393,10.655,0.434,16.055    c0.847,5.373,2.632,10.806,5.806,15.57l-0.161-0.255c2.545,4.733,6.242,8.617,10.394,11.75c4.167,3.129,8.861,5.547,13.913,7.01    c5.042,1.435,10.467,2.018,15.854,1.139l1.009-0.146l1.058-0.267l2.11-0.568l0.526-0.147l0.428-0.166l0.842-0.335l1.681-0.667    c2.86-1.162,5.27-3.046,7.14-5.185c3.765-4.312,5.754-9.331,7.14-14.268c1.372-4.965,2.005-9.991,2.277-14.983    C470.968,361.332,470.85,356.355,470.426,351.421z"
         id="path237" /></g><path
       fill="#FFFFFF"
       stroke="#000000"
       stroke-width="3"
       stroke-linecap="round"
       stroke-miterlimit="10"
       d="M260.327,184.462   c0,0-177.355-59.868-59.854,44.06C255.683,201.498,260.327,184.462,260.327,184.462z"
       id="path239" /><g
       id="g241"><path
         fill="#FFFFFF"
         stroke="#000000"
         stroke-width="3"
         stroke-linecap="round"
         stroke-miterlimit="10"
         d="M245.32,286.364    c0,0-19.58-26.644-50.002-17.903c-37.352,11.151-60.33,89.548-38.297,104.419c13.597,10.353,36.145,5.284,46.246-6.347    c18.559-17.339,11.44-55.281,18.162-57.095c6.722-1.812,25.318,5.57,34.394-0.229C264.899,303.409,245.32,286.364,245.32,286.364z    "
         id="path243" /><g
         id="g245"><path
           d="M189.276,374.528l1.5-15.758l1.5,15.758c0.079,0.828-0.529,1.563-1.357,1.643c-0.828,0.079-1.563-0.528-1.643-1.357     C189.267,374.72,189.268,374.619,189.276,374.528z"
           id="path247" /></g><g
         id="g249"><path
           d="M171.464,376.544l4.215-14.652l-1.264,15.193c-0.069,0.83-0.798,1.446-1.627,1.378c-0.83-0.069-1.446-0.798-1.377-1.628     C171.419,376.737,171.439,376.635,171.464,376.544z"
           id="path251" /></g><g
         id="g253"><path
           d="M155.214,370.735l8.38-13.169l-5.707,14.528c-0.304,0.775-1.179,1.156-1.954,0.853c-0.774-0.305-1.156-1.18-0.852-1.954     C155.118,370.904,155.165,370.813,155.214,370.735z"
           id="path255" /></g><linearGradient
         id="SVGID_18_"
         gradientUnits="userSpaceOnUse"
         x1="232.8261"
         y1="292.46"
         x2="144.2676"
         y2="358.1258"><stop
           offset="0"
           style="stop-color:#6171C4"
           id="stop258" /><stop
           offset="0.4709"
           style="stop-color:#4E5388"
           id="stop260" /><stop
           offset="0.8172"
           style="stop-color:#424163"
           id="stop262" /><stop
           offset="1"
           style="stop-color:#3E3A55"
           id="stop264" /></linearGradient><path
         fill="url(#SVGID_18_)"
         d="M245.944,309.668L245.944,309.668c-3.979-0.001-8.44-0.687-12.375-1.291    c-5.169-0.793-9.881-1.417-12.611-0.684c-3.792,1.023-4.315,6.808-5.184,16.392c-0.268,2.96-0.565,6.175-0.981,9.486    c-0.256,1.593-0.528,3.18-0.847,4.753c-1.005,4.994-2.38,9.886-4.41,14.39c-1.996,4.509-4.727,8.597-8.252,11.695l-0.009,0.01    l-0.201,0.209c-2.976,3.106-6.736,5.577-10.815,7.317c-4.08,1.747-8.499,2.769-12.889,2.972    c-4.388,0.248-8.766-0.364-12.687-1.881l-0.744-0.266l-0.642-0.327l-1.287-0.633l-0.325-0.151l-0.372-0.247l-0.752-0.502    l-1.504-1.009c-1.432-1.003-2.713-2.391-3.689-4.116c-1.988-3.447-2.921-7.873-3.306-12.332    c-0.345-4.496-0.162-9.134,0.368-13.754c0.531-4.621,1.441-9.233,2.614-13.785c1.136-4.563,2.558-9.072,4.24-13.486    c3.162-8.233,7.136-16.22,12.248-23.432c6.963-9.155,15.251-16.1,24.285-18.797c3.904-1.122,7.838-1.691,11.692-1.691    c14.355,0,25.316,7.878,31.291,13.469c0.064-0.272,0.119-0.55,0.187-0.821c0.35-1.005,0.7-2.007,1.048-3.006    c0.001-0.003,0.002-0.005,0.004-0.008c-6.605-5.886-17.804-13.248-32.529-13.248c-4.192,0-8.461,0.616-12.708,1.836    c-9.186,2.743-17.626,9.53-24.795,18.492c-0.032,0.038-0.066,0.073-0.099,0.111c-3.205,3.751-6.045,7.796-8.635,11.988    c-2.572,4.205-4.874,8.576-6.869,13.087c-2.009,4.506-3.754,9.137-5.213,13.871c-1.421,4.744-2.553,9.592-3.307,14.539    c-0.753,4.941-1.161,9.991-0.83,15.134c0.349,5.115,1.272,10.435,4.076,15.422c1.394,2.477,3.369,4.812,5.93,6.533l1.511,0.997    l0.754,0.499l0.385,0.252l0.484,0.251l1.951,0.987l0.981,0.476l0.958,0.349c5.095,1.961,10.523,2.499,15.752,2.123    c5.245-0.401,10.333-1.811,15.052-4.021c4.703-2.22,9.115-5.266,12.574-9.381l-0.21,0.22c4.08-4.019,6.937-8.972,8.862-14.06    c1.91-5.116,3-10.388,3.702-15.627c0.204-1.511,0.367-3.019,0.512-4.525c0.45-3.509,0.764-6.907,1.047-10.036    c0.436-4.809,1.165-12.859,2.525-13.227c0.572-0.154,1.336-0.232,2.275-0.232c2.35,0,5.504,0.484,8.845,0.999    c4.063,0.624,8.668,1.331,12.924,1.332h0.001c1.427,0,2.74-0.09,3.97-0.251c-0.935-1.105-1.841-2.235-2.712-3.391    C246.793,309.656,246.377,309.668,245.944,309.668z"
         id="path266" /></g><path
       fill="#FFFFFF"
       stroke="#000000"
       stroke-width="3"
       stroke-linecap="round"
       stroke-miterlimit="10"
       d="M324.859,174.118   c-55.217-4.564-146.156,41.029-152.644,79.534c-6.49,38.506,87.371,102.152,137.584,106.831   c50.213,4.677,151.662-49.129,155.4-81.903C468.937,245.808,382.793,178.909,324.859,174.118z"
       id="path268" /><path
       opacity="0.5"
       fill="#2F7FC1"
       stroke="#000000"
       stroke-miterlimit="10"
       d="M306.423,248.622   c-2.824,22.355-21.043,38.464-40.693,35.982c-19.64-2.482-33.282-22.618-30.456-44.973c2.823-22.356,21.042-38.464,40.69-35.981   C295.606,206.132,309.247,226.267,306.423,248.622z"
       id="path270" /><path
       opacity="0.5"
       fill="#2F7FC1"
       stroke="#000000"
       stroke-miterlimit="10"
       d="M401.459,256.845   c-2.825,22.355-21.045,38.465-40.694,35.983c-19.64-2.483-33.281-22.618-30.456-44.974c2.823-22.356,21.042-38.464,40.691-35.98   C390.643,214.355,404.283,234.491,401.459,256.845z"
       id="path272" /><path
       fill="#FFFFFF"
       stroke="#A0A0A0"
       stroke-miterlimit="10"
       d="M398.351,256.814c-2.424,19.182-18.059,33.003-34.916,30.875   c-16.854-2.131-28.557-19.407-26.132-38.588c2.421-19.182,18.054-33.003,34.913-30.873   C389.069,220.358,400.773,237.634,398.351,256.814z"
       id="path274" /><path
       fill="#FFFFFF"
       stroke="#A0A0A0"
       stroke-miterlimit="10"
       d="M300.129,248.004c-2.422,19.182-18.057,33.004-34.914,30.875   c-16.854-2.131-28.558-19.407-26.133-38.589c2.422-19.181,18.055-33.002,34.915-30.872   C290.85,211.547,302.553,228.824,300.129,248.004z"
       id="path276" /><path
       d="M290.252,236.442c-2.11,0.66-1.777,7.592-5.304,7.592c-3.831,0-6.938-3.107-6.938-6.939c0-3.756,4.589-4.826,5.171-6.916   c0.583-2.09-4.214-4.649-7.576-5.073c-12.58-1.589-24.246,8.725-26.054,23.039c-1.038,8.212,3.878,21.563,6.041,21.354   c2.163-0.209,1.469-2.45,2.937-2.45c1.649,0,2.988,1.338,2.988,2.99c0,1.396-1.781,1.119-2.256,2.888   c-0.475,1.77,6.146,3.555,9.793,4.016c12.581,1.589,24.247-8.726,26.055-23.041C295.919,247.5,292.363,235.783,290.252,236.442z"
       id="path278" /><path
       d="M382.577,243.924c-2.11,0.659-1.776,7.591-5.304,7.591c-3.832,0-6.939-3.106-6.939-6.938c0-3.756,4.59-4.826,5.172-6.916   c0.582-2.089-4.213-4.648-7.574-5.073c-12.581-1.59-24.246,8.725-26.055,23.039c-1.037,8.212,3.877,21.562,6.041,21.354   c2.163-0.209,1.469-2.45,2.936-2.45c1.65,0,2.988,1.338,2.988,2.99c0,1.397-1.779,1.119-2.256,2.889   c-0.475,1.77,6.146,3.555,9.794,4.016c12.58,1.589,24.246-8.726,26.054-23.041C388.242,254.982,384.687,243.265,382.577,243.924z"
       id="path280" /><path
       fill="none"
       stroke="#000000"
       stroke-width="2"
       stroke-linecap="round"
       stroke-miterlimit="10"
       d="M315.892,295.358   c-0.781,8.92-1.881,19.643,1.317,28.193c1.951,5.224,4.008,3.914,10.347,3.651c8.933-0.104,10.412-4.242,12.199-8.354"
       id="path282" /><path
       d="M327.487,288.668c-0.344,5.444-5.972,9.521-12.569,9.104c-6.597-0.418-11.665-5.171-11.321-10.615   c0.735-11.592,5.778-6.438,12.374-6.02C322.567,281.554,328.222,277.077,327.487,288.668z"
       id="path284" /><g
       id="g286"><line
         fill="none"
         stroke="#000000"
         stroke-linecap="round"
         stroke-miterlimit="10"
         x1="320.806"
         y1="305.693"
         x2="350.126"
         y2="298.907"
         id="line288" /><line
         fill="none"
         stroke="#000000"
         stroke-linecap="round"
         stroke-miterlimit="10"
         x1="321.023"
         y1="309.532"
         x2="342.822"
         y2="307.746"
         id="line290" /><line
         fill="none"
         stroke="#000000"
         stroke-linecap="round"
         stroke-miterlimit="10"
         x1="320.238"
         y1="312.376"
         x2="350.636"
         y2="316.413"
         id="line292" /></g><g
       id="g294"><line
         fill="none"
         stroke="#000000"
         stroke-linecap="round"
         stroke-miterlimit="10"
         x1="308.446"
         y1="304.886"
         x2="280.514"
         y2="293.682"
         id="line296" /><line
         fill="none"
         stroke="#000000"
         stroke-linecap="round"
         stroke-miterlimit="10"
         x1="307.641"
         y1="308.646"
         x2="286.375"
         y2="303.538"
         id="line298" /><line
         fill="none"
         stroke="#000000"
         stroke-linecap="round"
         stroke-miterlimit="10"
         x1="307.982"
         y1="311.577"
         x2="277.323"
         y2="310.903"
         id="line300" /></g><path
       fill="none"
       stroke="#000000"
       stroke-width="2"
       stroke-linecap="round"
       stroke-miterlimit="10"
       d="M314.897,295.421   c-0.218,8.953-0.318,19.73-4.447,27.873c-2.521,4.975-4.42,3.443-10.69,2.477c-8.865-1.099-9.875-5.376-11.193-9.662"
       id="path302" /><linearGradient
       id="SVGID_19_"
       gradientUnits="userSpaceOnUse"
       x1="171.5444"
       y1="258.147"
       x2="466.644"
       y2="276.6873"><stop
         offset="0"
         style="stop-color:#47488B"
         id="stop305" /><stop
         offset="0.2619"
         style="stop-color:#6191C4"
         id="stop307" /><stop
         offset="1"
         style="stop-color:#3E3A5F"
         id="stop309" /></linearGradient><path
       fill="url(#SVGID_19_)"
       d="M469.315,274.783l-0.132-1.186c-0.095-0.786-0.191-1.582-0.312-2.35   c-0.354-1.364-0.691-2.737-1.082-4.071c-0.482-1.276-0.963-2.547-1.442-3.813c-4.407-9.746-10.65-17.557-17.082-24.552   c-0.267-0.288-0.542-0.55-0.812-0.834l0,0c-6.241-6.605-12.798-12.4-19.367-17.582c-8.045-6.346-16.083-11.778-23.881-16.518   c-25.71-16.909-55.274-30.012-80.154-32.069c-2.61-0.216-5.354-0.325-8.158-0.325c-23.259,0-52.052,7.377-79.198,20.039   c-0.24,0.101-0.474,0.194-0.714,0.297c-7.259,3.16-14.82,6.74-22.343,11.181c-7.551,4.388-15.155,9.494-22.407,15.677   c-7.201,6.198-14.218,13.457-19.232,22.787c-0.562,1.205-1.126,2.414-1.691,3.625c-0.446,1.28-0.895,2.565-1.344,3.854   c-0.087,0.347-0.157,0.703-0.239,1.053l0,0c-0.232,1.001-0.458,2.002-0.681,3.007c-0.016,0.033-0.091,0.646-0.066,0.497   l-0.018,0.235l-0.034,0.471l-0.069,0.942l-0.139,1.889c0.066,1.488,0.197,2.994,0.333,4.482c0.298,1.36,0.597,2.725,0.897,4.092   c0.398,1.323,0.877,2.615,1.319,3.921c0.461,1.299,1.1,2.501,1.647,3.757c3.168,6.461,7.34,12.262,12.024,17.661   c27.946,33.937,87.266,68.354,124.648,71.836c2.106,0.196,4.348,0.296,6.662,0.296c1.72,0,3.482-0.053,5.278-0.154   c2.252-0.088,4.495-0.199,6.722-0.459c2.924-0.227,5.795-0.711,8.688-1.109c2.855-0.541,5.742-0.982,8.562-1.654   c5.683-1.204,11.241-2.798,16.768-4.436c5.481-1.762,10.922-3.612,16.237-5.713c10.664-4.115,20.959-8.896,30.857-14.16   c9.901-5.261,19.421-11.002,28.318-17.443c4.458-3.2,8.771-6.584,12.801-10.27c4.059-3.645,7.852-7.608,11.196-12.026   c3.279-4.428,6.317-9.37,7.412-15.48l0.209-1.128c0.051-0.755,0.017-0.346,0.03-0.575l0.004-0.237l0.011-0.473l0.04-1.887   C469.409,275.601,469.354,275.176,469.315,274.783z M461.111,277.509l-0.02,0.474l-0.005,0.194l-0.153,0.668   c-0.686,3.898-2.981,8.05-5.854,11.866c-2.891,3.839-6.345,7.497-10.139,10.909c-3.781,3.421-7.763,6.77-12.002,9.89   c-8.417,6.321-17.569,12.062-27.123,17.349c-9.548,5.306-19.547,10.102-29.854,14.362c-10.305,4.264-20.92,8.037-31.81,10.86   c-2.71,0.773-5.462,1.322-8.202,1.973c-2.758,0.504-5.515,1.102-8.298,1.443c-2.757,0.452-5.539,0.659-8.301,0.889   c-0.092,0.005-0.182,0.009-0.271,0.012l-0.532,0.021c-0.774,0.021-1.544,0.033-2.301,0.033c-2.171,0-4.268-0.093-6.232-0.275   c-35.191-3.279-92.852-36.565-120.276-68.73c-0.219-0.27-0.429-0.542-0.645-0.813c-1.03-1.292-2.032-2.597-2.99-3.92l0,0   c-3.199-4.411-5.964-8.994-8.017-13.762c-0.428-1.14-0.961-2.25-1.304-3.396c-0.319-1.149-0.687-2.286-0.976-3.424   c-0.196-1.142-0.389-2.281-0.583-3.417c-0.024-1.05-0.059-2.076-0.146-3.111c0.118-1.169,0.236-2.335,0.354-3.497   c0.277-1.087,0.553-2.169,0.827-3.248c0.4-1.059,0.801-2.115,1.198-3.167c0.511-1.023,1.02-2.042,1.528-3.058   c2.226-3.999,4.985-7.724,8-11.178c3.055-3.433,6.376-6.574,9.734-9.584c1.696-1.486,3.433-2.91,5.158-4.313   c1.783-1.34,3.483-2.75,5.289-4.001c3.548-2.578,7.081-5.067,10.669-7.32c8.763-5.597,17.446-10.385,25.831-14.435   c23.938-10.639,50.439-17.68,73.227-17.68c2.676,0,5.293,0.104,7.775,0.31c23.222,1.92,50.678,13.777,75.01,29.325   c2.057,1.406,4.122,2.847,6.209,4.363c6.281,4.58,12.631,9.717,19.034,15.28c3.202,2.785,6.353,5.751,9.505,8.812   c1.592,1.516,3.106,3.129,4.686,4.708c1.08,1.161,2.159,2.348,3.235,3.535l0,0c0.438,0.481,0.883,0.944,1.313,1.434   c1.09,1.26,2.17,2.552,3.244,3.858c4.709,5.746,9.11,11.949,12.025,18.754c0.377,1.043,0.757,2.091,1.138,3.142   c0.263,1.048,0.529,2.1,0.795,3.155l0.155,1.371l0.1,0.681c0.034,0.23,0.094,0.426,0.06,0.776L461.111,277.509z"
       id="path311" /><linearGradient
       id="SVGID_20_"
       gradientUnits="userSpaceOnUse"
       x1="426.7461"
       y1="215.4995"
       x2="476.1861"
       y2="181.5095"><stop
         offset="0"
         style="stop-color:#6171C4"
         id="stop314" /><stop
         offset="0.4709"
         style="stop-color:#4E5388"
         id="stop316" /><stop
         offset="0.8172"
         style="stop-color:#424163"
         id="stop318" /><stop
         offset="1"
         style="stop-color:#3E3A55"
         id="stop320" /></linearGradient><path
       fill="url(#SVGID_20_)"
       d="M487.707,198.739c-1.056-2.493-2.912-4.348-4.762-5.639c-1.867-1.337-3.828-2.158-5.74-2.809   c-1.923-0.684-3.825-1.1-5.721-1.491c-3.789-0.725-7.526-1.048-11.238-1.231c-3.715-0.192-7.4-0.154-11.067-0.002   c-7.329,0.314-14.597,0.914-21.8,1.912c-0.492,0.065-0.98,0.149-1.47,0.216c-14.748,1.425-28.484,3.624-35.899,4.909   c2.1,1.186,4.182,2.406,6.251,3.652c7.533-1.222,18.134-2.771,29.373-3.879c0.728-0.042,1.456-0.105,2.184-0.143   c7.167-0.337,14.319-0.641,21.425-0.498c3.551,0.072,7.084,0.231,10.575,0.505c3.484,0.292,6.946,0.724,10.226,1.475   c1.62,0.397,3.242,0.812,4.702,1.399c0.767,0.254,1.418,0.612,2.115,0.918c0.612,0.373,1.288,0.697,1.787,1.103   c2.19,1.649,2.826,3.083,2.279,5.614c-0.062,0.599-0.392,1.277-0.585,1.928c-0.331,0.667-0.602,1.344-0.996,2.018   c-0.766,1.352-1.687,2.696-2.698,4.009c-2.025,2.633-4.437,5.132-6.891,7.586c-2.471,2.45-5.118,4.784-7.813,7.069   c-2.7,2.283-5.479,4.498-8.308,6.663c-1.721,1.321-3.448,2.643-5.183,3.954c0.27,0.284,0.545,0.547,0.812,0.834   c1.364,1.483,2.715,3.013,4.046,4.581c1.612-1.134,3.219-2.284,4.804-3.462c2.928-2.19,5.821-4.44,8.658-6.785   c2.838-2.348,5.64-4.757,8.326-7.358c2.694-2.593,5.313-5.304,7.642-8.438c1.171-1.557,2.281-3.204,3.271-5.005   c0.503-0.89,0.92-1.891,1.354-2.854c0.345-1.069,0.771-2.054,0.949-3.253C488.785,203.984,488.807,201.23,487.707,198.739z"
       id="path322" /><linearGradient
       id="SVGID_21_"
       gradientUnits="userSpaceOnUse"
       x1="222.4795"
       y1="200.8164"
       x2="176.9008"
       y2="157.5553"><stop
         offset="0"
         style="stop-color:#6171C4"
         id="stop325" /><stop
         offset="0.4709"
         style="stop-color:#4E5388"
         id="stop327" /><stop
         offset="0.8172"
         style="stop-color:#424163"
         id="stop329" /><stop
         offset="1"
         style="stop-color:#3E3A55"
         id="stop331" /></linearGradient><path
       fill="url(#SVGID_21_)"
       d="M194.216,217.033c-2.181-2.121-4.315-4.281-6.442-6.435c-2.496-2.527-4.937-5.095-7.287-7.716   c-2.351-2.617-4.671-5.253-6.781-7.985c-2.1-2.73-4.145-5.501-5.776-8.326c-0.818-1.411-1.536-2.832-2.101-4.226   c-0.295-0.698-0.463-1.37-0.696-2.044c-0.096-0.627-0.326-1.311-0.307-1.853c-0.096-1.167,0.034-2.03,0.423-2.661   c0.366-0.652,1.083-1.312,2.174-1.897c0.501-0.312,1.185-0.535,1.803-0.814c0.706-0.206,1.368-0.468,2.141-0.619   c1.477-0.384,3.111-0.584,4.743-0.768c3.301-0.318,6.762-0.302,10.234-0.145c3.475,0.18,6.987,0.469,10.507,0.844   c7.045,0.752,14.087,1.969,21.152,3.187c3.528,0.63,7.053,1.311,10.574,2.036c0.073,0.014,0.147,0.031,0.22,0.045   c10.273,2.646,19.291,5.356,24.87,7.102c2.372-0.908,4.745-1.763,7.117-2.585c-2.199-0.734-15.07-4.985-30.971-9.079   c-0.023-0.007-0.046-0.015-0.069-0.022c-3.471-1.071-6.958-2.101-10.464-3.082c-3.505-0.988-7.032-1.924-10.6-2.715   c-3.564-0.813-7.151-1.561-10.774-2.212c-3.623-0.661-7.285-1.208-11.01-1.521c-3.727-0.324-7.5-0.514-11.402-0.305   c-1.958,0.133-3.927,0.288-5.971,0.715c-2.023,0.398-4.137,0.955-6.254,2.078c-2.087,1.075-4.297,2.753-5.765,5.237   c-1.514,2.478-1.876,5.38-1.702,7.775c0.023,1.274,0.32,2.337,0.528,3.487c0.31,1.043,0.603,2.124,0.99,3.096   c0.759,1.964,1.657,3.777,2.624,5.501c1.918,3.466,4.168,6.527,6.504,9.481c1.168,1.475,2.357,2.922,3.586,4.314   c1.206,1.425,2.456,2.784,3.718,4.137c2.527,2.699,5.117,5.309,7.748,7.862c2.053,1.979,4.149,3.905,6.263,5.804   c1.471-1.396,2.962-2.75,4.466-4.044C192.888,218.118,193.552,217.576,194.216,217.033z"
       id="path333" /><g
       id="g335"><linearGradient
         id="SVGID_22_"
         gradientUnits="userSpaceOnUse"
         x1="9"
         y1="71.4473"
         x2="589.1241"
         y2="71.4473"><stop
           offset="0"
           style="stop-color:#46498B"
           id="stop338" /><stop
           offset="0.4888"
           style="stop-color:#35A8E0"
           id="stop340" /><stop
           offset="1"
           style="stop-color:#3E3A5F"
           id="stop342" /></linearGradient><path
         fill="url(#SVGID_22_)"
         d="M91.675,63.522c-0.34,1.925-0.793,3.962-1.359,5.095c-0.339,0.68-1.132,2.264-2.377,3.962    c0,3.396,0,6.793,0.226,9.624c1.019,13.133,1.812,19.7,2.151,23.096c0,3.17-0.68,3.736-2.038,4.868    c-0.793,0.339-2.604,1.019-4.868,1.019c-1.02,0-2.151-0.113-3.397-0.453c-3.962-0.566-5.548-1.698-6.68-3.396    c-2.265-1.925-2.49-8.378-2.49-11.322c0-0.906,0-1.472,0-1.472s0-7.132,0-15.737c-5.322,1.019-10.643,2.038-15.964,3.17v0.453    c0.906,13.473,1.698,19.133,2.039,22.417c0,3.283-0.792,3.623-2.039,4.868c-0.679,0.453-2.943,1.246-5.773,1.246    c-0.793,0-1.585-0.113-2.491-0.227c-3.962-1.019-5.434-1.698-6.566-3.736c-2.264-2.038-2.49-9.058-2.49-11.774    c0-0.68,0-1.019,0-1.019s0-5.774,0-12.793c-2.378-0.906-3.623-2.491-3.623-5.321c0-0.566,0.113-1.245,0.227-2.038    c0-1.698,1.019-2.83,3.396-3.962c-0.453-22.53-1.925-28.53-1.925-32.379c0-2.831,0.792-4.529,3.623-5.321    c2.83-0.453,4.868-0.68,6.566-0.68c3.623,0,5.095,1.019,6.227,2.604c2.377,2.377,2.603,9.283,2.603,12.793    c0,1.245,0,2.038,0,2.038s0,7.472,0,16.303c5.096-0.906,10.19-1.585,16.191-2.718c-0.453-14.718-1.925-20.832-1.925-24.681    c0-2.943,0.905-4.642,3.736-5.66c2.264-0.227,4.188-0.34,5.661-0.34c4.189,0,5.661,0.906,7.133,2.604    c2.264,2.151,2.604,7.812,2.604,11.548c0,1.925-0.113,3.396-0.113,3.396s0,4.755,0,11.322    C91.335,60.918,91.675,62.05,91.675,63.522z"
         id="path344" /><linearGradient
         id="SVGID_23_"
         gradientUnits="userSpaceOnUse"
         x1="9"
         y1="71.6167"
         x2="589.1241"
         y2="71.6167"><stop
           offset="0"
           style="stop-color:#46498B"
           id="stop347" /><stop
           offset="0.4888"
           style="stop-color:#35A8E0"
           id="stop349" /><stop
           offset="1"
           style="stop-color:#3E3A5F"
           id="stop351" /></linearGradient><path
         fill="url(#SVGID_23_)"
         d="M146.807,40.652c-0.566,3.962-9.397,17.096-17.096,31.247c0,10.53,1.019,20.04,2.264,31.475    c0,5.208-2.604,7.812-7.02,7.812c-1.132,0-2.264-0.113-3.623-0.453c-8.038-1.811-8.83-11.435-8.83-18.794v-2.604    c0,0,0-8.492,0-18.228c-2.718-4.076-7.246-8.718-7.925-9.51C96.425,50.729,90.425,46.2,90.425,42.124    c0-1.132,0.453-2.264,1.472-3.396c4.868-4.642,7.699-6.113,9.85-6.113c0.679,0,1.359,0.227,2.038,0.453    c5.095,0.792,11.094,11.208,11.094,11.208s2.831,4.076,6.567,9.51l1.472-2.038c8.038-12.681,9.284-19.7,13.699-19.7    c0.566,0,1.132,0.114,1.812,0.34C145.674,35.897,146.807,38.162,146.807,40.652z"
         id="path353" /><linearGradient
         id="SVGID_24_"
         gradientUnits="userSpaceOnUse"
         x1="9"
         y1="71.9565"
         x2="589.1241"
         y2="71.9565"><stop
           offset="0"
           style="stop-color:#46498B"
           id="stop356" /><stop
           offset="0.4888"
           style="stop-color:#35A8E0"
           id="stop358" /><stop
           offset="1"
           style="stop-color:#3E3A5F"
           id="stop360" /></linearGradient><path
         fill="url(#SVGID_24_)"
         d="M199.445,56.616c0,2.377-0.113,4.982-0.566,7.812c-4.189,14.492-18.794,18.794-29.097,18.794    h-1.584c0,0,0.453,7.133,0.453,14.039c0,6.228-0.34,12.341-1.925,12.681c-1.698,1.019-3.396,1.246-4.755,1.246    c-1.245,0-2.151-0.227-2.151-0.227c-3.396-0.792-4.642-1.811-6-3.736c-1.698-1.698-1.925-7.586-1.925-10.642    c0-1.132,0-1.925,0-1.925s0-33.853,0-36.796c0-9.397-1.698-15.397-1.698-19.133c0-2.943,0.792-4.529,3.284-5.321    c2.377-0.453,4.188-0.679,5.66-0.679c2.604,0,3.963,0.679,4.868,1.698c2.718-0.68,6.114-1.132,9.964-1.132    C188.124,33.293,199.445,38.274,199.445,56.616z M170.462,67.598c5.548,0,12.906-1.473,14.039-10.643    c0-0.339-0.227-5.661-4.868-7.698c0,0-2.944-1.132-7.246-1.132c-1.585,0-3.284,0.113-5.208,0.566l0.906,18.794    C168.876,67.484,169.67,67.598,170.462,67.598z"
         id="path362" /><linearGradient
         id="SVGID_25_"
         gradientUnits="userSpaceOnUse"
         x1="9"
         y1="71.5605"
         x2="589.1241"
         y2="71.5605"><stop
           offset="0"
           style="stop-color:#46498B"
           id="stop365" /><stop
           offset="0.4888"
           style="stop-color:#35A8E0"
           id="stop367" /><stop
           offset="1"
           style="stop-color:#3E3A5F"
           id="stop369" /></linearGradient><path
         fill="url(#SVGID_25_)"
         d="M252.652,96.694c0,2.604-1.812,6.113-3.736,8.151c-3.17,2.944-9.737,4.416-9.737,4.416    s-11.321,1.812-20.152,1.812c-3.284,0-6.228-0.227-8.152-0.906c0,0-0.905-0.227-1.811-1.019c-1.133-0.567-1.925-1.246-2.604-2.151    c-2.038-1.812-2.264-7.586-2.264-10.756c0-1.245,0-2.151,0-2.151c0-8.038-0.114-16.189-0.114-24.454c0-4.076,0-8.152,0.114-12.341    c-0.34-9.397-1.812-15.397-1.812-19.247c0-2.943,0.792-4.529,3.623-5.321c2.604-0.453,4.642-0.68,6.227-0.68    c3.623,0,5.095,1.132,6.227,2.604c0.566,0.453,0.905,1.019,1.245,1.812c1.698-0.453,3.283-0.793,4.529-1.02    c4.754-0.905,10.302-1.245,15.624-1.245c2.377,0,4.755,0,7.019,0.227c2.378,0.226,3.284,1.585,3.284,3.396    c0,2.604-1.812,6.114-3.736,8.151c-5.208,4.529-18.114,4.416-25.247,5.321v13.359c7.133-1.472,14.492-1.811,22.077-1.811    c1.246,0.113,3.17,0.339,3.17,2.377c0,0.453-0.113,1.132-0.339,1.811c-2.944,10.756-11.095,11.661-21.398,12.681l-3.283,0.339    v15.511c8.831-2.151,19.021-1.925,27.964-2.264C251.747,93.524,252.652,94.883,252.652,96.694z"
         id="path371" /><linearGradient
         id="SVGID_26_"
         gradientUnits="userSpaceOnUse"
         x1="9"
         y1="71.2207"
         x2="589.1241"
         y2="71.2207"><stop
           offset="0"
           style="stop-color:#46498B"
           id="stop374" /><stop
           offset="0.4888"
           style="stop-color:#35A8E0"
           id="stop376" /><stop
           offset="1"
           style="stop-color:#3E3A5F"
           id="stop378" /></linearGradient><path
         fill="url(#SVGID_26_)"
         d="M309.141,104.506c0,0.566-0.453,1.02-0.453,1.472c-0.453,1.585-2.264,3.623-5.887,4.529    c-1.246,0.34-2.265,0.453-3.057,0.453c-1.359,0-2.378-0.339-3.623-1.019c-3.17-1.245-8.038-10.869-8.038-10.869l-8.832-17.662    c-0.792,0.113-1.811,0.113-2.831,0.113c-1.019,0-2.038,0-2.717-0.113c0,0,0.566,7.812,0.566,15.171    c0,6.566-0.453,12.793-2.038,13.132c-1.698,1.019-3.509,1.246-4.868,1.246c-1.245,0-2.151-0.227-2.151-0.227    c-3.396-0.792-4.642-1.811-6-3.849c-1.811-1.698-2.038-7.812-2.038-10.869c0-1.131,0-1.811,0-1.811s0-34.304,0-37.249    c0-9.396-1.698-15.511-1.698-19.36c0-3.057,0.792-4.642,3.396-5.434c2.377-0.453,4.189-0.68,5.661-0.68    c2.604,0,4.076,0.68,4.981,1.698c2.717-0.679,7.812-1.132,12.567-1.132c2.037,0,4.076,0.114,5.774,0.227    c3.736,0.114,20.944,1.698,20.944,23.549c0,2.264-0.113,4.868-0.566,7.699c-2.151,7.359-6.566,11.208-13.02,13.925    c4.303,7.699,7.925,15.963,12.681,23.662C308.801,102.808,309.141,103.827,309.141,104.506z M275.29,66.352    c6.566,0,17.095-1.698,17.208-11.435c0-5.321-4.529-8.605-12.454-8.605c-2.377,0-4.981,0.227-7.924,0.906l1.019,19.021    C273.818,66.239,274.497,66.352,275.29,66.352z"
         id="path380" /><linearGradient
         id="SVGID_27_"
         gradientUnits="userSpaceOnUse"
         x1="9"
         y1="70.7681"
         x2="589.1241"
         y2="70.7681"><stop
           offset="0"
           style="stop-color:#46498B"
           id="stop383" /><stop
           offset="0.4888"
           style="stop-color:#35A8E0"
           id="stop385" /><stop
           offset="1"
           style="stop-color:#3E3A5F"
           id="stop387" /></linearGradient><path
         fill="url(#SVGID_27_)"
         d="M399.364,94.204c0,0-1.925,6.453-9.511,15.51c0,0-0.792,1.359-2.377,1.359    c-1.133,0-2.604-0.567-4.529-2.718c-7.02-7.812-15.85-18.568-17.774-20.718l1.019,18.228c0,0.906-0.227,3.849-1.698,3.849    c-0.793,0.68-2.83,1.359-5.435,1.359c-1.019,0-1.925-0.114-3.057-0.34c-3.963-0.792-5.547-1.811-6.906-3.509    c-2.037-1.812-2.264-7.812-2.264-10.982c0-1.245,0-2.151,0-2.151s0-34.87,0-37.701c0-9.624-1.925-15.851-1.925-19.699    c0-2.944,0.905-4.529,3.735-5.435c2.604-0.453,4.756-0.68,6.34-0.68c3.737,0,5.096,1.132,6.454,2.604    c2.49,2.491,2.943,8.832,2.943,12.454c0,3.17-0.227,6.453-0.227,11.548c1.925-1.698,3.963-3.736,4.416-4.302l0.34-0.34    c2.717-3.056,10.529-12.114,15.963-19.36c0.906-1.132,2.151-2.717,3.85-2.717c0.68,0,2.604,0.227,4.642,2.378    c2.718,2.83,5.095,10.416,5.095,13.585c-1.472,2.377-10.755,11.322-25.134,23.549c-0.227,0.226-0.227,0.566-0.227,0.793    c0,0.566,0.34,1.131,0.905,1.584L399.364,94.204z"
         id="path389" /><linearGradient
         id="SVGID_28_"
         gradientUnits="userSpaceOnUse"
         x1="9"
         y1="71.6167"
         x2="589.1241"
         y2="71.6167"><stop
           offset="0"
           style="stop-color:#46498B"
           id="stop392" /><stop
           offset="0.4888"
           style="stop-color:#35A8E0"
           id="stop394" /><stop
           offset="1"
           style="stop-color:#3E3A5F"
           id="stop396" /></linearGradient><path
         fill="url(#SVGID_28_)"
         d="M401.622,37.595c0-2.944,0.906-4.642,3.736-5.434c2.604-0.453,4.643-0.566,6.227-0.566    c3.737,0,5.209,1.02,6.34,2.491c2.491,2.377,2.944,8.717,2.944,12.34c0,0.906-0.113,1.811-0.113,10.755    c0,7.133,0,17.549,0.453,25.134c0.68,13.473,1.472,20.039,1.811,23.323c0,1.359-0.112,4.076-1.925,4.529    c-0.792,0.792-2.603,1.472-5.207,1.472c-1.019,0-2.151-0.113-3.396-0.34c-3.85-0.792-5.208-1.924-6.68-3.736    c-2.038-1.812-2.265-8.152-2.265-11.208c0-1.02,0-1.698,0-1.698s0-34.531,0-37.475C403.094,47.671,401.622,41.444,401.622,37.595z    "
         id="path398" /><linearGradient
         id="SVGID_29_"
         gradientUnits="userSpaceOnUse"
         x1="9"
         y1="71.334"
         x2="589.1241"
         y2="71.334"><stop
           offset="0"
           style="stop-color:#46498B"
           id="stop401" /><stop
           offset="0.4888"
           style="stop-color:#35A8E0"
           id="stop403" /><stop
           offset="1"
           style="stop-color:#3E3A5F"
           id="stop405" /></linearGradient><path
         fill="url(#SVGID_29_)"
         d="M429.697,40.086c1.359,0,2.604-0.114,4.076-0.114c0.906,0,6.68-0.113,14.378-2.264    c8.492-2.378,24.568-5.774,26.72-5.774c0.564,0,1.02-0.114,1.471-0.114c1.473,0,2.152,0.453,3.059,1.585    c1.132,1.472,2.036,10.189,2.264,12.793c-4.075,0.113-19.36,5.321-19.36,5.321s1.133,17.322,1.698,29.776    c0.68,13.699,1.472,20.039,1.812,23.549c0,3.396-0.793,3.623-1.924,4.529c-0.794,0.792-2.718,1.472-5.209,1.472    c-1.019,0-2.037-0.114-3.283-0.34c-3.962-0.792-5.435-2.038-6.793-3.623c-2.151-1.925-2.378-8.378-2.378-11.435    c0-1.019,0-1.585,0-1.585V56.163l-10.868,2.039c0,0-0.679,0.113-1.472,0.113c-1.132,0-2.718-0.227-3.623-1.698    c-2.377-2.038-2.604-10.189-2.604-14.265c0-1.472,0-2.378,0-2.378C428.339,40.086,429.019,40.086,429.697,40.086z"
         id="path407" /><linearGradient
         id="SVGID_30_"
         gradientUnits="userSpaceOnUse"
         x1="9"
         y1="71.334"
         x2="589.1241"
         y2="71.334"><stop
           offset="0"
           style="stop-color:#46498B"
           id="stop410" /><stop
           offset="0.4888"
           style="stop-color:#35A8E0"
           id="stop412" /><stop
           offset="1"
           style="stop-color:#3E3A5F"
           id="stop414" /></linearGradient><path
         fill="url(#SVGID_30_)"
         d="M486.413,40.086c1.358,0,2.604-0.114,4.076-0.114c0.906,0,6.68-0.113,14.378-2.264    c8.491-2.378,24.567-5.774,26.719-5.774c0.566,0,1.019-0.114,1.473-0.114c1.471,0,2.149,0.453,3.056,1.585    c1.133,1.472,2.039,10.189,2.265,12.793c-4.076,0.113-19.36,5.321-19.36,5.321s1.133,17.322,1.698,29.776    c0.68,13.699,1.473,20.039,1.812,23.549c0,3.396-0.792,3.623-1.924,4.529c-0.794,0.792-2.718,1.472-5.208,1.472    c-1.019,0-2.038-0.114-3.284-0.34c-3.962-0.792-5.433-2.038-6.793-3.623c-2.15-1.925-2.377-8.378-2.377-11.435    c0-1.019,0-1.585,0-1.585V56.163l-10.868,2.039c0,0-0.679,0.113-1.473,0.113c-1.132,0-2.716-0.227-3.622-1.698    c-2.377-2.038-2.604-10.189-2.604-14.265c0-1.472,0-2.378,0-2.378C485.054,40.086,485.732,40.086,486.413,40.086z"
         id="path416" /><linearGradient
         id="SVGID_31_"
         gradientUnits="userSpaceOnUse"
         x1="9"
         y1="71.6167"
         x2="589.1241"
         y2="71.6167"><stop
           offset="0"
           style="stop-color:#46498B"
           id="stop419" /><stop
           offset="0.4888"
           style="stop-color:#35A8E0"
           id="stop421" /><stop
           offset="1"
           style="stop-color:#3E3A5F"
           id="stop423" /></linearGradient><path
         fill="url(#SVGID_31_)"
         d="M597.132,40.652c-0.565,3.962-9.397,17.096-17.096,31.247c0,10.53,1.02,20.04,2.265,31.475    c0,5.208-2.604,7.812-7.019,7.812c-1.133,0-2.265-0.113-3.624-0.453c-8.038-1.811-8.83-11.435-8.83-18.794v-2.604    c0,0,0-8.492,0-18.228c-2.718-4.076-7.246-8.718-7.926-9.51c-8.15-10.869-14.151-15.398-14.151-19.474    c0-1.132,0.452-2.264,1.472-3.396c4.867-4.642,7.698-6.113,9.85-6.113c0.679,0,1.358,0.227,2.037,0.453    c5.095,0.792,11.096,11.208,11.096,11.208s2.831,4.076,6.567,9.51l1.471-2.038c8.04-12.681,9.285-19.7,13.699-19.7    c0.566,0,1.134,0.114,1.812,0.34C596,35.897,597.132,38.162,597.132,40.652z"
         id="path425" /></g></g></svg>